<?xml version="1.0" encoding="UTF-8"?>
<svg version="1.1" xmlns="http://www.w3.org/2000/svg" width="512" height="512">
<path d="M0 0 C168.96 0 337.92 0 512 0 C512 168.96 512 337.92 512 512 C343.04 512 174.08 512 0 512 C0 343.04 0 174.08 0 0 Z " fill="#006736" transform="translate(0,0)"/>
<path d="M0 0 C78.87 0 157.74 0 239 0 C239 0.33 239 0.66 239 1 C238.44650879 1.10022461 237.89301758 1.20044922 237.32275391 1.30371094 C220.08815805 4.46727255 203.28901751 8.23319226 192 23 C188.84089204 28.47919187 186.34693337 34.13266656 184 40 C281.68 40 379.36 40 480 40 C480 165.4 480 290.8 480 420 C472.41 420 464.82 420 457 420 C455.92893477 416.78680431 455.87575457 414.49636334 455.87695217 411.11792469 C455.87496112 409.88231291 455.87297007 408.64670112 455.87091869 407.37364656 C455.87377192 405.99509463 455.87671752 404.61654289 455.87974548 403.23799133 C455.87930965 401.77934745 455.87843453 400.32070364 455.87715632 398.86206025 C455.87491366 394.84407279 455.87892954 390.82611184 455.88393438 386.80812776 C455.88824195 382.47889669 455.88679224 378.14966718 455.8860321 373.82043457 C455.88550707 366.31650245 455.88865178 358.812579 455.89426994 351.30864906 C455.90238764 340.45914784 455.90500044 329.60965081 455.90625793 318.76014688 C455.90844803 301.15869905 455.91510696 283.55725586 455.92456055 265.95581055 C455.93373576 248.85489932 455.9408046 231.75398936 455.94506836 214.65307617 C455.94533636 213.5887016 455.94560435 212.52432702 455.94588047 211.42769867 C455.94795982 203.10392557 455.94991677 194.78015244 455.95183504 186.45637929 C455.96127333 145.63758195 455.98139055 104.81879618 456 64 C365.58 64 275.16 64 182 64 C183.89547212 77.51617469 183.89547212 77.51617469 186 91 C135.18 91 84.36 91 32 91 C32 216.73 32 342.46 32 472 C129.35 472 226.7 472 327 472 C321.17222313 488.0263864 313.97108072 497.3302353 298.5625 504.8125 C277.74405226 513.48927962 253.86014065 512.29697703 231.70532227 512.22705078 C229.11934636 512.2264364 226.53337012 512.226708 223.94739437 512.2277813 C217.7854349 512.22883204 211.62353511 512.21972201 205.46159085 512.20677864 C198.31354458 512.19222167 191.16551817 512.19078066 184.01745605 512.18920898 C165.1991281 512.17876291 146.38081311 512.15084038 127.5625 512.125 C85.466875 512.08375 43.37125 512.0425 0 512 C0 343.04 0 174.08 0 0 Z " fill="#006837" transform="translate(0,0)"/>
<path d="M0 0 C1.68356346 -0.00256805 1.68356346 -0.00256805 3.40113831 -0.00518799 C7.13937924 -0.00847423 10.87743731 0.00250921 14.61566162 0.01345825 C17.350484 0.0151872 20.0853031 0.01389166 22.82012558 0.01272774 C29.3835209 0.01166899 35.94686103 0.02085891 42.51024221 0.0337304 C50.11000321 0.04818529 57.70973152 0.04972289 65.30950928 0.05130005 C85.35395156 0.06178147 105.39838165 0.08970389 125.44281006 0.11550903 C192.63906006 0.17738403 192.63906006 0.17738403 261.19281006 0.24050903 C261.19281006 169.20050903 261.19281006 338.16050903 261.19281006 512.24050903 C177.37281006 512.24050903 93.55281006 512.24050903 7.19281006 512.24050903 C7.19281006 511.91050903 7.19281006 511.58050903 7.19281006 511.24050903 C7.81099609 511.20087036 8.42918213 511.16123169 9.06610107 511.12039185 C28.49405894 509.81497732 48.60339521 508.01943104 63.64202881 494.02566528 C69.32007971 487.48947067 72.68966164 480.12259298 76.19281006 472.24050903 C110.51281006 472.24050903 144.83281006 472.24050903 180.19281006 472.24050903 C180.19281006 346.51050903 180.19281006 220.78050903 180.19281006 91.24050903 C99.34281006 91.24050903 18.49281006 91.24050903 -64.80718994 91.24050903 C-66.18423326 87.10937908 -67.22179052 83.63966277 -67.93218994 79.42800903 C-68.09976807 78.47281372 -68.26734619 77.51761841 -68.44000244 76.53347778 C-68.89430602 72.45924464 -68.80718994 68.33999284 -68.80718994 64.24050903 C21.61281006 64.24050903 112.03281006 64.24050903 205.19281006 64.24050903 C205.52281006 181.72050903 205.85281006 299.20050903 206.19281006 420.24050903 C213.78281006 420.24050903 221.37281006 420.24050903 229.19281006 420.24050903 C229.19281006 294.84050903 229.19281006 169.44050903 229.19281006 40.24050903 C131.51281006 40.24050903 33.83281006 40.24050903 -66.80718994 40.24050903 C-62.59549648 26.20153082 -55.75607073 15.95260788 -42.76812744 8.61941528 C-29.28506413 2.34036337 -14.78370357 -0.08385777 0 0 Z " fill="#000000" transform="translate(250.80718994140625,-0.240509033203125)"/>
<path d="M0 0 C70.95 0 141.9 0 215 0 C214.67 110.55 214.34 221.1 214 335 C188.26 335 162.52 335 136 335 C134.68 326.42 133.36 317.84 132 309 C131.02801251 304.5515609 130.06128955 300.28815837 128.8125 295.9375 C128.5227832 294.89295654 128.23306641 293.84841309 127.93457031 292.7722168 C123.87788752 278.54296559 118.8266215 264.59545017 113 251 C88.25 250.67 63.5 250.34 38 250 C38 242.74 38 235.48 38 228 C59.45 227.67 80.9 227.34 103 227 C92.7914946 205.2962028 82.47537457 183.6579751 71.96627808 162.09890747 C66.9282413 151.75636761 61.96287415 141.37877263 57 131 C57.66 130.67 58.32 130.34 59 130 C59.66 130.845625 60.32 131.69125 61 132.5625 C63.74855068 135.87485595 66.86611281 138.60049452 70.12890625 141.39453125 C72.2011768 143.17261726 74.1844517 144.95750816 76 147 C76 147.66 76 148.32 76 149 C81.86027786 144.013392 87.37576475 138.76292368 92.80273438 133.31079102 C93.64270966 132.47096176 94.48268494 131.63113251 95.34811401 130.76585388 C98.0990389 128.01423734 100.84641368 125.25910538 103.59375 122.50390625 C105.50995895 120.58527144 107.42692438 118.66739314 109.34387207 116.74949646 C113.85761384 112.23266023 118.36880285 107.71328351 122.8790555 103.19296354 C128.01862346 98.04217555 133.16106858 92.8942641 138.30374432 87.74657929 C148.87234273 77.16755924 159.43736497 66.58497446 170 56 C168.65272739 53.20429836 167.40293767 51.16032197 165.1796875 48.984375 C164.64472656 48.45585937 164.10976563 47.92734375 163.55859375 47.3828125 C163.00300781 46.84398437 162.44742188 46.30515625 161.875 45.75 C161.03001953 44.91855469 161.03001953 44.91855469 160.16796875 44.0703125 C158.78313972 42.70895515 157.39216796 41.35385141 156 40 C150.99380051 44.19529182 146.29184779 48.56871152 141.68774414 53.19873047 C140.6474556 54.23879997 140.6474556 54.23879997 139.58615112 55.29988098 C137.3167716 57.56995171 135.05094505 59.8435333 132.78515625 62.1171875 C131.20354236 63.70066839 129.62170611 65.28392721 128.03965759 66.86697388 C123.89303355 71.01740092 119.74942249 75.1708232 115.60644531 79.32489014 C111.37161778 83.5699796 107.1339288 87.8122105 102.89648438 92.0546875 C94.59486345 100.36700662 86.29642478 108.68249489 78 117 C73.80593039 115.07719557 70.92014589 112.20862212 67.703125 108.96875 C67.10949158 108.37703003 66.51585815 107.78531006 65.90423584 107.17565918 C64.65456282 105.92734419 63.40740008 104.67651177 62.16259766 103.42333984 C60.24992048 101.49992003 58.32676881 99.58743901 56.40234375 97.67578125 C55.18946202 96.46157861 53.97720048 95.24675607 52.765625 94.03125 C52.18758118 93.45725464 51.60953735 92.88325928 51.01397705 92.29187012 C47 88.22993434 47 88.22993434 47 86 C44.36 88.31 41.72 90.62 39 93 C36.94982393 90.26643191 35.55774965 88.35619395 34.18164062 85.39428711 C33.85661057 84.69994064 33.53158051 84.00559418 33.19670105 83.29020691 C32.8533522 82.54346207 32.51000336 81.79671722 32.15625 81.02734375 C31.79054398 80.24027542 31.42483795 79.45320709 31.04804993 78.64228821 C29.85924618 76.07680117 28.67881621 73.5075902 27.5 70.9375 C27.09671478 70.06130005 26.69342957 69.1851001 26.27792358 68.28234863 C19.41433189 53.35231872 12.91955563 38.33257723 7 23 C6.62746094 22.0404541 6.25492188 21.0809082 5.87109375 20.09228516 C4.83938639 17.42010764 3.82133312 14.7433878 2.8125 12.0625 C2.52028564 11.29260742 2.22807129 10.52271484 1.92700195 9.72949219 C0.64822527 6.24547408 0 3.75989971 0 0 Z " fill="#000000" transform="translate(193,115)"/>
<path d="M0 0 C50.82 0 101.64 0 154 0 C160 21 160 21 160 24 C114.79 24 69.58 24 23 24 C23 134.55 23 245.1 23 359 C113.42 359 203.84 359 297 359 C297 371 297 371 295 381 C197.65 381 100.3 381 0 381 C0 255.27 0 129.54 0 0 Z " fill="#000000" transform="translate(32,91)"/>
<path d="M0 0 C29.37 0 58.74 0 89 0 C89 29.37 89 58.74 89 89 C59.63 89 30.26 89 0 89 C0 59.63 0 30.26 0 0 Z " fill="#000000" transform="translate(98,309)"/>
<path d="M0 0 C29.37 0 58.74 0 89 0 C89 29.37 89 58.74 89 89 C59.63 89 30.26 89 0 89 C0 59.63 0 30.26 0 0 Z " fill="#000000" transform="translate(98,175)"/>
<path d="M0 0 C1.11228972 0.9457431 2.22348623 1.892772 3.33422852 2.84033203 C3.95314468 3.36756866 4.57206085 3.8948053 5.20973206 4.4380188 C7.5563298 6.48538918 9.75278049 8.65666942 11.9375 10.875 C13.09572266 12.04675781 13.09572266 12.04675781 14.27734375 13.2421875 C15.13005859 14.11230469 15.13005859 14.11230469 16 15 C14.57017015 18.2575384 12.82573548 20.42539545 10.3182373 22.93572998 C9.55269028 23.70691666 8.78714325 24.47810333 7.99839783 25.2726593 C7.15781326 26.1091954 6.3172287 26.94573151 5.45117188 27.80761719 C4.56651749 28.69577621 3.6818631 29.58393524 2.770401 30.49900818 C0.34651894 32.9301822 -2.08177658 35.35677222 -4.51247215 37.78112316 C-7.05431961 40.31790625 -9.59128288 42.85956627 -12.12902832 45.40045166 C-16.38923021 49.66429059 -20.65362879 53.92389816 -24.92041016 58.18115234 C-29.85818323 63.10802742 -34.7886911 68.04208513 -39.71551371 72.9799087 C-43.94372292 77.21718163 -48.17580185 81.45055992 -52.41116476 85.68068242 C-54.94180419 88.20819889 -57.47106113 90.73705895 -59.99684143 93.26943207 C-62.80925377 96.08867243 -65.62975963 98.89972598 -68.45117188 101.70996094 C-69.29175644 102.55459396 -70.132341 103.39922699 -70.99839783 104.26945496 C-71.76394485 105.02936234 -72.52949188 105.78926971 -73.3182373 106.57220459 C-73.98486137 107.23807461 -74.65148544 107.90394463 -75.33831024 108.58999252 C-77 110 -77 110 -79 110 C-80.375 108.56640625 -80.375 108.56640625 -82 106.5625 C-85.66189675 102.21932013 -89.74745993 98.57072727 -94.05859375 94.8828125 C-94.69925781 94.26148438 -95.33992188 93.64015625 -96 93 C-96 92.34 -96 91.68 -96 91 C-97.485 90.505 -97.485 90.505 -99 90 C-100.49243164 88.48632812 -100.49243164 88.48632812 -102.09765625 86.53125 C-106.29042811 81.58949311 -110.83323575 77.05603264 -115.4375 72.5 C-116.67790039 71.26636719 -116.67790039 71.26636719 -117.94335938 70.0078125 C-119.95994959 68.00287887 -121.97885236 66.00033747 -124 64 C-122.01727184 59.69551588 -119.20343273 56.68764597 -116 53.25 C-115.4534375 52.64800781 -114.906875 52.04601562 -114.34375 51.42578125 C-112.93997089 49.90846118 -111.47416237 48.4490346 -110 47 C-109.34 47 -108.68 47 -108 47 C-106.67553711 48.34570312 -106.67553711 48.34570312 -105.08984375 50.28125 C-100.22790116 55.99910626 -94.88753321 61.22059763 -89.5625 66.5 C-88.5342702 67.52320139 -87.50627374 68.54663733 -86.47851562 69.5703125 C-83.98835662 72.04957999 -81.49507167 74.52567538 -79 77 C-76.03845002 75.66627583 -73.96023206 74.20842075 -71.67169189 71.91220093 C-71.03513168 71.27839005 -70.39857147 70.64457916 -69.74272156 69.99156189 C-68.71233513 68.95038963 -68.71233513 68.95038963 -67.66113281 67.88818359 C-66.92903091 67.15637375 -66.19692902 66.4245639 -65.44264221 65.670578 C-63.02469891 63.25124171 -60.61391631 60.82489887 -58.203125 58.3984375 C-56.52775971 56.71934198 -54.85195222 55.04068757 -53.17572021 53.36245728 C-48.76544498 48.94454638 -44.36120887 44.52066219 -39.95819092 40.09552002 C-35.4640308 35.58090013 -30.96420262 31.07193767 -26.46484375 26.5625 C-17.63766304 17.71387054 -8.81685002 8.85892225 0 0 Z " fill="#007E00" transform="translate(348,154)"/>
<path d="M0 0 C43.89 0 87.78 0 133 0 C133 7.26 133 14.52 133 22 C89.11 22 45.22 22 0 22 C0 14.74 0 7.48 0 0 Z " fill="#BF0100" transform="translate(231,343)"/>
<path d="M0 0 C28.38 0 56.76 0 86 0 C85.67 2.31 85.34 4.62 85 7 C84.67 12.61 84.34 18.22 84 24 C56.28 24 28.56 24 0 24 C0 16.08 0 8.16 0 0 Z " fill="#000000" transform="translate(98,40)"/>
<path d="M0 0 C14.19 0 28.38 0 43 0 C43 14.19 43 28.38 43 43 C28.81 43 14.62 43 0 43 C0 28.81 0 14.62 0 0 Z " fill="#006837" transform="translate(121,332)"/>
<path d="M0 0 C14.19 0 28.38 0 43 0 C43 14.19 43 28.38 43 43 C28.81 43 14.62 43 0 43 C0 28.81 0 14.62 0 0 Z " fill="#006837" transform="translate(121,198)"/>
</svg>
